<?xml version="1.0" encoding="UTF-8" standalone="no"?>
<!-- Created with Inkscape (http://www.inkscape.org/) -->

<svg
   width="80mm"
   height="80mm"
   viewBox="0 0 80 80"
   version="1.1"
   id="SVGRoot"
   sodipodi:docname="vCard.svg"
   inkscape:version="1.2 (da316b6974, 2022-05-18)"
   inkscape:export-filename="vCard.png"
   inkscape:export-xdpi="95.25"
   inkscape:export-ydpi="95.25"
   xmlns:inkscape="http://www.inkscape.org/namespaces/inkscape"
   xmlns:sodipodi="http://sodipodi.sourceforge.net/DTD/sodipodi-0.dtd"
   xmlns:xlink="http://www.w3.org/1999/xlink"
   xmlns="http://www.w3.org/2000/svg"
   xmlns:svg="http://www.w3.org/2000/svg">
  <sodipodi:namedview
     id="namedview2323"
     pagecolor="#ffffff"
     bordercolor="#000000"
     borderopacity="0.25"
     inkscape:showpageshadow="false"
     inkscape:pageopacity="0.0"
     inkscape:pagecheckerboard="0"
     inkscape:deskcolor="#ffffff"
     inkscape:document-units="mm"
     showgrid="false"
     inkscape:zoom="1.6819304"
     inkscape:cx="126.34292"
     inkscape:cy="167.96176"
     inkscape:window-width="1920"
     inkscape:window-height="1121"
     inkscape:window-x="0"
     inkscape:window-y="0"
     inkscape:window-maximized="1"
     inkscape:current-layer="layer1"
     borderlayer="false" />
  <defs
     id="defs2318">
    <pattern
       inkscape:collect="always"
       xlink:href="#pattern4116"
       id="pattern5448"
       patternTransform="matrix(0.26458333,0,0,0.26458333,112.35576,7.8021247)" />
    <pattern
       inkscape:collect="always"
       xlink:href="#pattern4116"
       id="pattern5203"
       patternTransform="matrix(0.0638958,-0.07665138,0.07665138,0.0638958,-11.630157,4.226507)" />
    <filter
       inkscape:collect="always"
       style="color-interpolation-filters:sRGB"
       id="filter3603"
       x="-0.038817687"
       y="-0.059990974"
       width="1.0776354"
       height="1.1199819">
      <feGaussianBlur
         inkscape:collect="always"
         stdDeviation="1.0798541"
         id="feGaussianBlur3605" />
    </filter>
    <pattern
       patternUnits="userSpaceOnUse"
       width="23.115062"
       height="59.35004"
       patternTransform="translate(335.49752,-37.327466)"
       id="pattern4116">
      <use
         x="0"
         y="0"
         xlink:href="#g4112"
         id="use4114"
         transform="matrix(3.7795276,0,0,3.7795276,-369.32148,-29.488345)" />
    </pattern>
    <pattern
       patternUnits="userSpaceOnUse"
       width="23.115062"
       height="59.35004"
       patternTransform="translate(335.49752,-37.327466)"
       id="pattern4116-3">
      <use
         x="0"
         y="0"
         xlink:href="#g4112"
         id="use4114-6"
         transform="matrix(3.7795276,0,0,3.7795276,-369.32148,-29.488345)" />
    </pattern>
  </defs>
  <g
     inkscape:label="Layer 1"
     inkscape:groupmode="layer"
     id="layer1">
    <g
       id="g5282"
       transform="matrix(0.85044759,-0.13672383,0.13672383,0.85044759,0.0960733,22.423455)">
      <g
         id="g5409">
        <rect
           style="font-variation-settings:normal;opacity:1;fill:#ffffff;fill-opacity:1;stroke:none;stroke-width:0.307166;stroke-linecap:butt;stroke-linejoin:miter;stroke-miterlimit:4;stroke-dasharray:none;stroke-dashoffset:0;stroke-opacity:1;stop-color:#000000;stop-opacity:1"
           id="rect5317"
           width="92.875542"
           height="92.875542"
           x="-0.11153552"
           y="-26.032381"
           transform="rotate(9.1331153)" />
        <g
           id="g5387">
          <rect
             style="opacity:0.459449;mix-blend-mode:normal;fill:#000000;stroke:#000000;stroke-width:0.854448;stroke-linecap:round;stroke-linejoin:round;filter:url(#filter3603);stop-color:#000000"
             id="rect2921"
             width="77.770576"
             height="50.322136"
             x="3.6147101"
             y="2.3389299"
             transform="matrix(1.0019512,0,0,1.0019512,-0.57802708,-0.575798)" />
          <rect
             style="font-variation-settings:normal;opacity:1;fill:url(#pattern5203);fill-opacity:1;stroke:none;stroke-width:0.264583;stroke-linecap:butt;stroke-linejoin:miter;stroke-miterlimit:4;stroke-dasharray:none;stroke-dashoffset:0;stroke-opacity:1;stop-color:#000000;stop-opacity:1"
             id="rect2923"
             width="77.770576"
             height="50.322136"
             x="3.6147101"
             y="2.3389299" />
          <rect
             style="font-variation-settings:normal;opacity:1;fill:#ffffff;fill-opacity:1;stroke:none;stroke-width:0.234183;stroke-linecap:butt;stroke-linejoin:miter;stroke-miterlimit:4;stroke-dasharray:none;stroke-dashoffset:0;stroke-opacity:1;stop-color:#000000;stop-opacity:1"
             id="rect5261"
             width="70.771004"
             height="43.321999"
             x="7.1144981"
             y="5.8390007" />
          <g
             id="g5367">
            <g
               inkscape:label="QR Code: https://inkscape.org"
               transform="matrix(0.24207969,0,0,0.24207969,43.653659,11.52274)"
               id="g2861">
              <rect
                 x="0"
                 y="0"
                 width="132"
                 height="132"
                 style="fill:#ffffff;stroke:none"
                 id="rect2855" />
              <g
                 style="fill:#000000;stroke:none"
                 id="g2859">
                <path
                   d="m 115.6,116 h -3.2 c -0.22091,0 -0.4,-0.17909 -0.4,-0.4 v -3.2 c 0,-0.22091 0.17909,-0.4 0.4,-0.4 h 3.2 c 0.22091,0 0.4,0.17909 0.4,0.4 v 3.2 c 0,0.22091 -0.17909,0.4 -0.4,0.4 z m -12,0 h -3.2 c -0.22091,0 -0.4,-0.17909 -0.4,-0.4 V 112 h 3.6 c 0.22091,0 0.4,0.17909 0.4,0.4 v 3.2 c 0,0.22091 -0.17909,0.4 -0.4,0.4 z m -20,0 h -3.2 c -0.220914,0 -0.4,-0.17909 -0.4,-0.4 v -7.2 c 0,-0.22091 -0.179086,-0.4 -0.4,-0.4 h -3.2 c -0.220914,0 -0.4,-0.17909 -0.4,-0.4 v -3.2 C 76,104.17909 75.820914,104 75.6,104 H 68.4 C 68.179086,104 68,103.82091 68,103.6 V 96 h 3.6 C 71.820914,96 72,95.820914 72,95.6 V 92.4 C 72,92.179086 71.820914,92 71.6,92 H 68.4 C 68.179086,92 68,92.179086 68,92.4 V 96 H 48.4 C 48.179086,96 48,95.820914 48,95.6 V 92.4 C 48,92.179086 48.179086,92 48.4,92 h 3.2 C 51.820914,92 52,91.820914 52,91.6 V 88 h 3.6 C 55.820914,88 56,87.820914 56,87.6 V 80 H 67.6 C 67.820914,80 68,79.820914 68,79.6 V 76.4 C 68,76.179086 68.179086,76 68.4,76 h 3.2 c 0.220914,0 0.4,0.179086 0.4,0.4 v 7.2 C 72,83.820914 71.820914,84 71.6,84 H 68.4 C 68.179086,84 68,84.179086 68,84.4 v 3.2 c 0,0.220914 0.179086,0.4 0.4,0.4 h 7.2 c 0.220914,0 0.4,0.179086 0.4,0.4 v 3.2 c 0,0.220914 0.179086,0.4 0.4,0.4 h 3.2 C 79.820914,92 80,91.820914 80,91.6 V 84.4 C 80,84.179086 79.820914,84 79.6,84 H 76.4 C 76.179086,84 76,83.820914 76,83.6 V 80.4 C 76,80.179086 76.179086,80 76.4,80 h 7.2 C 83.820914,80 84,79.820914 84,79.6 V 72 h 4 v 3.6 c 0,0.220914 0.179086,0.4 0.4,0.4 h 11.2 c 0.220914,0 0.4,-0.179086 0.4,-0.4 v -3.2 c 0,-0.220914 0.17909,-0.4 0.4,-0.4 h 7.6 v 3.6 c 0,0.220914 -0.17909,0.4 -0.4,0.4 h -3.2 c -0.22091,0 -0.4,0.179086 -0.4,0.4 v 3.2 c 0,0.220914 -0.17909,0.4 -0.4,0.4 h -3.2 c -0.22091,0 -0.4,0.179086 -0.4,0.4 v 23.2 c 0,0.22091 0.17909,0.4 0.4,0.4 h 3.6 v 3.6 c 0,0.22091 -0.17909,0.4 -0.4,0.4 h -3.2 c -0.22091,0 -0.4,0.17909 -0.4,0.4 v 3.6 h -7.6 c -0.220914,0 -0.4,-0.17909 -0.4,-0.4 v -7.2 c 0,-0.22091 0.179086,-0.4 0.4,-0.4 h 3.2 c 0.220914,0 0.4,-0.17909 0.4,-0.4 v -3.2 c 0,-0.22091 -0.179086,-0.4 -0.4,-0.4 h -7.2 c -0.220914,0 -0.4,0.17909 -0.4,0.4 v 3.2 c 0,0.22091 -0.179086,0.4 -0.4,0.4 h -3.2 c -0.220914,0 -0.4,0.17909 -0.4,0.4 v 11.2 c 0,0.22091 -0.179086,0.4 -0.4,0.4 z m -12,0 H 48.4 c -0.220914,0 -0.4,-0.17909 -0.4,-0.4 v -11.2 c 0,-0.22091 0.179086,-0.4 0.4,-0.4 h 7.2 c 0.220914,0 0.4,-0.17909 0.4,-0.4 v -3.2 c 0,-0.22091 0.179086,-0.4 0.4,-0.4 h 3.2 c 0.220914,0 0.4,0.17909 0.4,0.4 v 3.2 c 0,0.22091 0.179086,0.4 0.4,0.4 h 3.2 c 0.220914,0 0.4,0.17909 0.4,0.4 v 3.2 c 0,0.22091 -0.179086,0.4 -0.4,0.4 h -7.2 c -0.220914,0 -0.4,0.17909 -0.4,0.4 v 3.2 c 0,0.22091 0.179086,0.4 0.4,0.4 h 11.2 c 0.220914,0 0.4,-0.17909 0.4,-0.4 v -3.2 c 0,-0.22091 0.179086,-0.4 0.4,-0.4 h 3.2 c 0.220914,0 0.4,0.17909 0.4,0.4 v 7.2 c 0,0.22091 -0.179086,0.4 -0.4,0.4 z m -28,0 H 16.4 C 16.179086,116 16,115.82091 16,115.6 V 88.4 C 16,88.179086 16.179086,88 16.4,88 h 27.2 c 0.220914,0 0.4,0.179086 0.4,0.4 v 27.2 c 0,0.22091 -0.179086,0.4 -0.4,0.4 z M 40,111.6 V 92.4 C 40,92.179086 39.820914,92 39.6,92 H 20.4 C 20.179086,92 20,92.179086 20,92.4 v 19.2 c 0,0.22091 0.179086,0.4 0.4,0.4 h 19.2 c 0.220914,0 0.4,-0.17909 0.4,-0.4 z m 75.6,-3.6 h -7.2 c -0.22091,0 -0.4,-0.17909 -0.4,-0.4 v -3.2 c 0,-0.22091 -0.17909,-0.4 -0.4,-0.4 H 104 v -3.6 c 0,-0.22091 0.17909,-0.4 0.4,-0.4 h 7.6 v 3.6 c 0,0.22091 0.17909,0.4 0.4,0.4 h 3.2 c 0.22091,0 0.4,0.17909 0.4,0.4 v 3.2 c 0,0.22091 -0.17909,0.4 -0.4,0.4 z m -80,0 H 24.4 C 24.179086,108 24,107.82091 24,107.6 V 96.4 C 24,96.179086 24.179086,96 24.4,96 h 11.2 c 0.220914,0 0.4,0.179086 0.4,0.4 v 11.2 c 0,0.22091 -0.179086,0.4 -0.4,0.4 z m 80,-8 H 112 v -3.6 c 0,-0.220914 0.17909,-0.4 0.4,-0.4 h 3.2 c 0.22091,0 0.4,0.179086 0.4,0.4 v 3.2 c 0,0.220914 -0.17909,0.4 -0.4,0.4 z M 96,95.6 V 84.4 C 96,84.179086 95.820914,84 95.6,84 H 84.4 C 84.179086,84 84,84.179086 84,84.4 v 11.2 c 0,0.220914 0.179086,0.4 0.4,0.4 H 95.6 C 95.820914,96 96,95.820914 96,95.6 Z M 115.6,92 h -3.2 C 112.17909,92 112,91.820914 112,91.6 V 84 h 3.6 c 0.22091,0 0.4,0.179086 0.4,0.4 v 7.2 c 0,0.220914 -0.17909,0.4 -0.4,0.4 z m -24,0 H 88.4 C 88.179086,92 88,91.820914 88,91.6 V 88.4 C 88,88.179086 88.179086,88 88.4,88 h 3.2 c 0.220914,0 0.4,0.179086 0.4,0.4 v 3.2 C 92,91.820914 91.820914,92 91.6,92 Z M 64,91.6 V 84.4 C 64,84.179086 63.820914,84 63.6,84 H 60.4 C 60.179086,84 60,84.179086 60,84.4 v 7.2 c 0,0.220914 0.179086,0.4 0.4,0.4 h 3.2 C 63.820914,92 64,91.820914 64,91.6 Z M 51.6,88 H 48.4 C 48.179086,88 48,87.820914 48,87.6 V 84 h 3.6 c 0.220914,0 0.4,0.179086 0.4,0.4 V 88 Z m 60,-4 h -3.2 c -0.22091,0 -0.4,-0.179086 -0.4,-0.4 v -3.2 c 0,-0.220914 0.17909,-0.4 0.4,-0.4 h 3.2 c 0.22091,0 0.4,0.179086 0.4,0.4 V 84 Z m -64,0 H 40.4 C 40.179086,84 40,83.820914 40,83.6 V 80 h 8 v 4 z m -12,0 H 16.4 C 16.179086,84 16,83.820914 16,83.6 V 80.4 C 16,80.179086 16.179086,80 16.4,80 h 7.2 C 23.820914,80 24,79.820914 24,79.6 V 76 h 3.6 c 0.220914,0 0.4,0.179086 0.4,0.4 v 3.2 c 0,0.220914 0.179086,0.4 0.4,0.4 h 3.2 C 31.820914,80 32,79.820914 32,79.6 V 72 h 4 v 3.6 c 0,0.220914 0.179086,0.4 0.4,0.4 H 40 v 4 H 36.4 C 36.179086,80 36,80.179086 36,80.4 v 3.2 c 0,0.220914 -0.179086,0.4 -0.4,0.4 z m 20,-4 H 48 V 72.4 C 48,72.179086 48.179086,72 48.4,72 H 52 v 3.6 c 0,0.220914 0.179086,0.4 0.4,0.4 h 3.2 c 0.220914,0 0.4,0.179086 0.4,0.4 V 80 Z m 60,-4 h -3.2 C 112.17909,76 112,75.820914 112,75.6 V 72.4 C 112,72.179086 111.82091,72 111.6,72 H 108 v -3.6 c 0,-0.220914 0.17909,-0.4 0.4,-0.4 h 3.2 c 0.22091,0 0.4,-0.179086 0.4,-0.4 v -3.2 c 0,-0.220914 0.17909,-0.4 0.4,-0.4 h 3.2 c 0.22091,0 0.4,0.179086 0.4,0.4 v 11.2 c 0,0.220914 -0.17909,0.4 -0.4,0.4 z m -36,0 H 76.4 C 76.179086,76 76,75.820914 76,75.6 V 68.4 C 76,68.179086 75.820914,68 75.6,68 H 72.4 C 72.179086,68 72,68.179086 72,68.4 v 3.2 C 72,71.820914 71.820914,72 71.6,72 H 68.4 C 68.179086,72 68,71.820914 68,71.6 V 64 h 3.6 C 71.820914,64 72,63.820914 72,63.6 V 60.4 C 72,60.179086 72.179086,60 72.4,60 H 76 v 3.6 c 0,0.220914 0.179086,0.4 0.4,0.4 h 3.2 c 0.220914,0 0.4,0.179086 0.4,0.4 v 3.2 c 0,0.220914 0.179086,0.4 0.4,0.4 h 3.2 c 0.220914,0 0.4,0.179086 0.4,0.4 V 72 H 80.4 C 80.179086,72 80,72.179086 80,72.4 v 3.2 c 0,0.220914 -0.179086,0.4 -0.4,0.4 z m -16,0 H 60.4 C 60.179086,76 60,75.820914 60,75.6 V 72 h 3.6 c 0.220914,0 0.4,0.179086 0.4,0.4 v 3.2 c 0,0.220914 -0.179086,0.4 -0.4,0.4 z m -20,0 H 40 v -4 h 3.6 c 0.220914,0 0.4,0.179086 0.4,0.4 v 3.2 c 0,0.220914 -0.179086,0.4 -0.4,0.4 z m -20,0 H 16.4 C 16.179086,76 16,75.820914 16,75.6 V 72.4 C 16,72.179086 16.179086,72 16.4,72 H 24 v 4 z m 72,-4 H 88 V 60.4 C 88,60.179086 88.179086,60 88.4,60 h 3.2 c 0.220914,0 0.4,0.179086 0.4,0.4 v 3.2 c 0,0.220914 0.179086,0.4 0.4,0.4 H 96 v 7.6 c 0,0.220914 -0.179086,0.4 -0.4,0.4 z m -36,0 H 52 V 68.4 C 52,68.179086 51.820914,68 51.6,68 H 48.4 C 48.179086,68 48,67.820914 48,67.6 V 64 h 7.6 C 55.820914,64 56,63.820914 56,63.6 V 60.4 C 56,60.179086 55.820914,60 55.6,60 H 52.4 C 52.179086,60 52,59.820914 52,59.6 V 56 h 7.6 c 0.220914,0 0.4,0.179086 0.4,0.4 v 3.2 c 0,0.220914 0.179086,0.4 0.4,0.4 h 3.2 C 63.820914,60 64,59.820914 64,59.6 V 52.4 C 64,52.179086 63.820914,52 63.6,52 H 60.4 C 60.179086,52 60,51.820914 60,51.6 V 48.4 C 60,48.179086 60.179086,48 60.4,48 h 7.2 c 0.220914,0 0.4,0.179086 0.4,0.4 V 64 H 60.4 C 60.179086,64 60,64.179086 60,64.4 V 72 Z m -20,0 H 36 v -4 h 4 v 4 z m -8,0 H 24 v -4 h 8 v 4 z m 12,-4 H 40 v -4 h 4 v 3.6 c 0,0.220914 -0.179086,0.4 -0.4,0.4 z m -8,0 H 32 V 64.4 C 32,64.179086 32.179086,64 32.4,64 H 36 v 4 z m -12,0 H 16.4 C 16.179086,68 16,67.820914 16,67.6 V 60.4 C 16,60.179086 16.179086,60 16.4,60 h 3.2 C 19.820914,60 20,59.820914 20,59.6 V 52.4 C 20,52.179086 19.820914,52 19.6,52 H 16.4 C 16.179086,52 16,51.820914 16,51.6 V 48.4 C 16,48.179086 16.179086,48 16.4,48 h 11.2 c 0.220914,0 0.4,0.179086 0.4,0.4 v 3.2 c 0,0.220914 0.179086,0.4 0.4,0.4 h 3.2 c 0.220914,0 0.4,0.179086 0.4,0.4 V 56 H 28.4 C 28.179086,56 28,56.179086 28,56.4 v 3.2 C 28,59.820914 27.820914,60 27.6,60 H 24.4 C 24.179086,60 24,60.179086 24,60.4 V 68 Z m 80,-4 H 96 v -8 h 3.6 c 0.220914,0 0.4,-0.179086 0.4,-0.4 V 52 h 3.6 c 0.22091,0 0.4,0.179086 0.4,0.4 v 3.2 c 0,0.220914 0.17909,0.4 0.4,0.4 h 3.6 v 3.6 c 0,0.220914 -0.17909,0.4 -0.4,0.4 h -3.2 c -0.22091,0 -0.4,0.179086 -0.4,0.4 v 3.2 c 0,0.220914 -0.17909,0.4 -0.4,0.4 z m -56,0 H 44 v -4 h 3.6 c 0.220914,0 0.4,0.179086 0.4,0.4 V 64 Z m -8,0 H 36 V 60.4 C 36,60.179086 35.820914,60 35.6,60 H 32.4 C 32.179086,60 32,59.820914 32,59.6 V 56 h 3.6 C 35.820914,56 36,55.820914 36,55.6 V 48.4 C 36,48.179086 36.179086,48 36.4,48 h 7.2 c 0.220914,0 0.4,0.179086 0.4,0.4 v 3.2 C 44,51.820914 43.820914,52 43.6,52 H 40.4 C 40.179086,52 40,52.179086 40,52.4 v 3.2 c 0,0.220914 0.179086,0.4 0.4,0.4 h 3.2 c 0.220914,0 0.4,0.179086 0.4,0.4 V 60 H 40.4 C 40.179086,60 40,60.179086 40,60.4 V 64 Z m 76,-4 h -3.2 C 112.17909,60 112,59.820914 112,59.6 V 56.4 C 112,56.179086 111.82091,56 111.6,56 H 108 v -7.6 c 0,-0.220914 0.17909,-0.4 0.4,-0.4 h 7.2 c 0.22091,0 0.4,0.179086 0.4,0.4 v 11.2 c 0,0.220914 -0.17909,0.4 -0.4,0.4 z m -32,0 H 76 V 48.4 C 76,48.179086 76.179086,48 76.4,48 h 3.2 C 79.820914,48 80,47.820914 80,47.6 V 32 h 3.6 c 0.220914,0 0.4,0.179086 0.4,0.4 v 15.2 c 0,0.220914 0.179086,0.4 0.4,0.4 h 15.2 c 0.220914,0 0.4,0.179086 0.4,0.4 V 52 H 96.4 C 96.179086,52 96,52.179086 96,52.4 V 56 H 88.4 C 88.179086,56 88,55.820914 88,55.6 V 52.4 C 88,52.179086 87.820914,52 87.6,52 H 84.4 C 84.179086,52 84,52.179086 84,52.4 v 7.2 c 0,0.220914 -0.179086,0.4 -0.4,0.4 z m -32,-4 H 48.4 C 48.179086,56 48,55.820914 48,55.6 V 32.4 C 48,32.179086 48.179086,32 48.4,32 h 3.2 c 0.220914,0 0.4,0.179086 0.4,0.4 v 3.2 c 0,0.220914 0.179086,0.4 0.4,0.4 H 60 v 7.6 C 60,43.820914 59.820914,44 59.6,44 H 56 V 40.4 C 56,40.179086 55.820914,40 55.6,40 H 52.4 C 52.179086,40 52,40.179086 52,40.4 v 3.2 c 0,0.220914 0.179086,0.4 0.4,0.4 H 56 v 7.6 C 56,51.820914 55.820914,52 55.6,52 H 52.4 C 52.179086,52 52,52.179086 52,52.4 V 56 Z m 64,-12 H 88.4 C 88.179086,44 88,43.820914 88,43.6 V 16.4 C 88,16.179086 88.179086,16 88.4,16 h 27.2 c 0.22091,0 0.4,0.179086 0.4,0.4 v 27.2 c 0,0.220914 -0.17909,0.4 -0.4,0.4 z m -40,0 H 72.4 C 72.179086,44 72,43.820914 72,43.6 V 40 h 3.6 c 0.220914,0 0.4,0.179086 0.4,0.4 v 3.2 c 0,0.220914 -0.179086,0.4 -0.4,0.4 z m -8,0 H 64.4 C 64.179086,44 64,43.820914 64,43.6 V 36.4 C 64,36.179086 63.820914,36 63.6,36 H 60 V 28.4 C 60,28.179086 60.179086,28 60.4,28 h 7.2 C 67.820914,28 68,27.820914 68,27.6 V 20.4 C 68,20.179086 68.179086,20 68.4,20 h 3.2 C 71.820914,20 72,19.820914 72,19.6 V 16.4 C 72,16.179086 72.179086,16 72.4,16 h 3.2 c 0.220914,0 0.4,0.179086 0.4,0.4 v 7.2 C 76,23.820914 75.820914,24 75.6,24 H 72.4 C 72.179086,24 72,24.179086 72,24.4 v 3.2 c 0,0.220914 0.179086,0.4 0.4,0.4 h 7.2 c 0.220914,0 0.4,0.179086 0.4,0.4 V 32 H 72.4 C 72.179086,32 72,32.179086 72,32.4 V 40 H 68.4 C 68.179086,40 68,40.179086 68,40.4 v 3.2 c 0,0.220914 -0.179086,0.4 -0.4,0.4 z m -24,0 H 16.4 C 16.179086,44 16,43.820914 16,43.6 V 16.4 C 16,16.179086 16.179086,16 16.4,16 h 27.2 c 0.220914,0 0.4,0.179086 0.4,0.4 V 43.6 C 44,43.820914 43.820914,44 43.6,44 Z M 112,39.6 V 20.4 C 112,20.179086 111.82091,20 111.6,20 H 92.4 C 92.179086,20 92,20.179086 92,20.4 v 19.2 c 0,0.220914 0.179086,0.4 0.4,0.4 h 19.2 c 0.22091,0 0.4,-0.179086 0.4,-0.4 z m -72,0 V 20.4 C 40,20.179086 39.820914,20 39.6,20 H 20.4 C 20.179086,20 20,20.179086 20,20.4 v 19.2 c 0,0.220914 0.179086,0.4 0.4,0.4 H 39.6 C 39.820914,40 40,39.820914 40,39.6 Z M 107.6,36 H 96.4 C 96.179086,36 96,35.820914 96,35.6 V 24.4 C 96,24.179086 96.179086,24 96.4,24 h 11.2 c 0.22091,0 0.4,0.179086 0.4,0.4 v 11.2 c 0,0.220914 -0.17909,0.4 -0.4,0.4 z m -72,0 H 24.4 C 24.179086,36 24,35.820914 24,35.6 V 24.4 C 24,24.179086 24.179086,24 24.4,24 h 11.2 c 0.220914,0 0.4,0.179086 0.4,0.4 v 11.2 c 0,0.220914 -0.179086,0.4 -0.4,0.4 z m 20,-8 H 52.4 C 52.179086,28 52,27.820914 52,27.6 V 24 h 3.6 c 0.220914,0 0.4,0.179086 0.4,0.4 v 3.2 c 0,0.220914 -0.179086,0.4 -0.4,0.4 z m 8,-4 H 60.4 C 60.179086,24 60,23.820914 60,23.6 V 20.4 C 60,20.179086 59.820914,20 59.6,20 H 52.4 C 52.179086,20 52,20.179086 52,20.4 V 24 H 48.4 C 48.179086,24 48,23.820914 48,23.6 V 16.4 C 48,16.179086 48.179086,16 48.4,16 h 15.2 c 0.220914,0 0.4,0.179086 0.4,0.4 v 7.2 c 0,0.220914 -0.179086,0.4 -0.4,0.4 z"
                   id="path2857" />
              </g>
            </g>
            <text
               xml:space="preserve"
               style="font-weight:bold;font-size:7.05556px;line-height:0.8;font-family:Ubuntu;-inkscape-font-specification:'Ubuntu Bold';text-align:end;text-anchor:end;opacity:1;fill:#000000;fill-opacity:1;stroke:none;stroke-width:0.933876;stroke-linecap:round;stroke-linejoin:round;stop-color:#000000"
               x="41.775585"
               y="20.950243"
               id="text3673"><tspan
                 sodipodi:role="line"
                 id="tspan3671"
                 style="text-align:end;text-anchor:end;fill:#000000;fill-opacity:1;stroke:none;stroke-width:0.933877"
                 x="41.775585"
                 y="20.950243">Jane Doe</tspan><tspan
                 sodipodi:role="line"
                 style="font-size:5.64444px;text-align:end;text-anchor:end;fill:#000000;fill-opacity:1;stroke:none;stroke-width:0.933877"
                 x="41.775585"
                 y="26.59469"
                 id="tspan3725">Manager</tspan></text>
            <g
               id="g3896"
               transform="matrix(0.64740405,0,0,0.64740405,3.9678767,13.653549)">
              <circle
                 style="opacity:1;fill:#cc0000;fill-opacity:1;stroke:none;stroke-width:0.552434;stroke-linecap:round;stroke-linejoin:round;stop-color:#000000"
                 id="path3779"
                 cx="13.203474"
                 cy="31.513931"
                 r="4.2162957" />
              <circle
                 style="opacity:1;fill:#ff6600;fill-opacity:1;stroke:none;stroke-width:0.508372;stroke-linecap:round;stroke-linejoin:round;stop-color:#000000"
                 id="circle4052"
                 cx="14.057473"
                 cy="33.792263"
                 r="3.8800039" />
              <circle
                 style="opacity:1;fill:#ff9900;fill-opacity:1;stroke:none;stroke-width:0.453616;stroke-linecap:round;stroke-linejoin:round;stop-color:#000000"
                 id="circle3781"
                 cx="16.672451"
                 cy="36.340527"
                 r="3.4620957" />
              <circle
                 style="opacity:1;fill:#ffcc00;fill-opacity:1;stroke:none;stroke-width:0.337847;stroke-linecap:round;stroke-linejoin:round;stop-color:#000000"
                 id="circle3783"
                 cx="19.699131"
                 cy="37.667034"
                 r="2.5785191" />
              <text
                 xml:space="preserve"
                 style="font-weight:bold;font-size:5.42845px;font-family:Ubuntu;-inkscape-font-specification:'Ubuntu Bold';text-align:start;text-anchor:start;opacity:1;fill:#ff9900;fill-opacity:1;stroke:none;stroke-width:0.898141;stroke-linecap:round;stroke-linejoin:round;stop-color:#000000"
                 x="20.914045"
                 y="33.804672"
                 id="text3839"><tspan
                   sodipodi:role="line"
                   id="tspan3837"
                   style="text-align:start;text-anchor:start;fill:#ff9900;stroke-width:0.898143"
                   x="20.914045"
                   y="33.804672">Good Company</tspan></text>
            </g>
          </g>
        </g>
      </g>
    </g>
    <g
       id="g4112">
      <rect
         style="opacity:1;fill:#ff6600;fill-opacity:1;stroke:none;stroke-width:0.933876;stroke-linecap:round;stroke-linejoin:round;stop-color:#000000"
         id="rect4106"
         width="3.0579302"
         height="15.703032"
         x="97.716309"
         y="7.8021245" />
      <rect
         style="opacity:1;fill:#ffffff;fill-opacity:1;stroke:none;stroke-width:0.933876;stroke-linecap:round;stroke-linejoin:round;stop-color:#000000"
         id="rect4108"
         width="3.0579302"
         height="15.703032"
         x="100.77424"
         y="7.8021245" />
    </g>
    <rect
       style="fill:url(#pattern5448);stroke:none;stroke-width:0.264583"
       width="6.1158605"
       height="15.703032"
       x="112.35576"
       y="7.8021245"
       id="rect4119" />
  </g>
</svg>
