<?xml version="1.0" encoding="UTF-8" standalone="no"?>
<!-- Created with Inkscape (http://www.inkscape.org/) -->

<svg
   width="80mm"
   height="80mm"
   viewBox="0 0 80 80"
   version="1.1"
   id="SVGRoot"
   sodipodi:docname="vCard.svg"
   inkscape:version="1.2 (da316b6974, 2022-05-18)"
   inkscape:export-filename="vCard.png"
   inkscape:export-xdpi="95.25"
   inkscape:export-ydpi="95.25"
   xmlns:inkscape="http://www.inkscape.org/namespaces/inkscape"
   xmlns:sodipodi="http://sodipodi.sourceforge.net/DTD/sodipodi-0.dtd"
   xmlns:xlink="http://www.w3.org/1999/xlink"
   xmlns="http://www.w3.org/2000/svg"
   xmlns:svg="http://www.w3.org/2000/svg">
  <sodipodi:namedview
     id="namedview2323"
     pagecolor="#ffffff"
     bordercolor="#000000"
     borderopacity="0.25"
     inkscape:showpageshadow="false"
     inkscape:pageopacity="0.0"
     inkscape:pagecheckerboard="0"
     inkscape:deskcolor="#ffffff"
     inkscape:document-units="mm"
     showgrid="false"
     inkscape:zoom="1.1893044"
     inkscape:cx="179.5167"
     inkscape:cy="78.617384"
     inkscape:window-width="1920"
     inkscape:window-height="1121"
     inkscape:window-x="0"
     inkscape:window-y="0"
     inkscape:window-maximized="1"
     inkscape:current-layer="g5367"
     borderlayer="false"
     showguides="true" />
  <defs
     id="defs2318">
    <pattern
       inkscape:collect="always"
       xlink:href="#pattern4116"
       id="pattern5448"
       patternTransform="matrix(0.26458333,0,0,0.26458333,112.35576,7.8021247)" />
    <pattern
       inkscape:collect="always"
       xlink:href="#pattern4116"
       id="pattern5203"
       patternTransform="matrix(0.0638958,-0.07665138,0.07665138,0.0638958,-11.630157,4.226507)" />
    <filter
       inkscape:collect="always"
       style="color-interpolation-filters:sRGB"
       id="filter3603"
       x="-0.038817687"
       y="-0.059990974"
       width="1.0776354"
       height="1.1199819">
      <feGaussianBlur
         inkscape:collect="always"
         stdDeviation="1.0798541"
         id="feGaussianBlur3605" />
    </filter>
    <pattern
       patternUnits="userSpaceOnUse"
       width="23.115062"
       height="59.35004"
       patternTransform="translate(335.49752,-37.327466)"
       id="pattern4116">
      <use
         x="0"
         y="0"
         xlink:href="#g4112"
         id="use4114"
         transform="matrix(3.7795276,0,0,3.7795276,-369.32148,-29.488345)" />
    </pattern>
    <pattern
       patternUnits="userSpaceOnUse"
       width="23.115062"
       height="59.35004"
       patternTransform="translate(335.49752,-37.327466)"
       id="pattern4116-3">
      <use
         x="0"
         y="0"
         xlink:href="#g4112"
         id="use4114-6"
         transform="matrix(3.7795276,0,0,3.7795276,-369.32148,-29.488345)" />
    </pattern>
  </defs>
  <g
     inkscape:label="Layer 1"
     inkscape:groupmode="layer"
     id="layer1">
    <g
       id="g5282"
       transform="matrix(0.85044759,-0.13672383,0.13672383,0.85044759,0.0960733,22.423455)">
      <g
         id="g5409">
        <rect
           style="font-variation-settings:normal;opacity:1;fill:#ffffff;fill-opacity:1;stroke:none;stroke-width:0.307166;stroke-linecap:butt;stroke-linejoin:miter;stroke-miterlimit:4;stroke-dasharray:none;stroke-dashoffset:0;stroke-opacity:1;stop-color:#000000;stop-opacity:1"
           id="rect5317"
           width="92.875542"
           height="92.875542"
           x="-0.11153552"
           y="-26.032381"
           transform="rotate(9.1331153)" />
        <g
           id="g5387">
          <rect
             style="opacity:0.459449;mix-blend-mode:normal;fill:#000000;stroke:#000000;stroke-width:0.854448;stroke-linecap:round;stroke-linejoin:round;filter:url(#filter3603);stop-color:#000000"
             id="rect2921"
             width="77.770576"
             height="50.322136"
             x="3.6147101"
             y="2.3389299"
             transform="matrix(1.0019512,0,0,1.0019512,-0.57802708,-0.575798)" />
          <rect
             style="font-variation-settings:normal;opacity:1;fill:url(#pattern5203);fill-opacity:1;stroke:none;stroke-width:0.264583;stroke-linecap:butt;stroke-linejoin:miter;stroke-miterlimit:4;stroke-dasharray:none;stroke-dashoffset:0;stroke-opacity:1;stop-color:#000000;stop-opacity:1"
             id="rect2923"
             width="77.770576"
             height="50.322136"
             x="3.6147101"
             y="2.3389299" />
          <rect
             style="font-variation-settings:normal;opacity:1;fill:#ffffff;fill-opacity:1;stroke:none;stroke-width:0.234183;stroke-linecap:butt;stroke-linejoin:miter;stroke-miterlimit:4;stroke-dasharray:none;stroke-dashoffset:0;stroke-opacity:1;stop-color:#000000;stop-opacity:1"
             id="rect5261"
             width="70.771004"
             height="43.321999"
             x="7.1144981"
             y="5.8390007" />
          <g
             id="g5367">
            <text
               xml:space="preserve"
               style="font-weight:bold;font-size:7.05556px;line-height:0.8;font-family:Ubuntu;-inkscape-font-specification:'Ubuntu Bold';text-align:end;text-anchor:end;opacity:1;fill:#000000;fill-opacity:1;stroke:none;stroke-width:0.933876;stroke-linecap:round;stroke-linejoin:round;stop-color:#000000"
               x="41.775585"
               y="20.950243"
               id="text3673"><tspan
                 sodipodi:role="line"
                 id="tspan3671"
                 style="text-align:end;text-anchor:end;fill:#000000;fill-opacity:1;stroke:none;stroke-width:0.933877"
                 x="41.775585"
                 y="20.950243">Jane Doe</tspan><tspan
                 sodipodi:role="line"
                 style="font-size:5.64444px;text-align:end;text-anchor:end;fill:#000000;fill-opacity:1;stroke:none;stroke-width:0.933877"
                 x="41.775585"
                 y="26.59469"
                 id="tspan3725">Manager</tspan></text>
            <g
               id="g3896"
               transform="matrix(0.64740405,0,0,0.64740405,3.9678767,13.653549)">
              <circle
                 style="opacity:1;fill:#cc0000;fill-opacity:1;stroke:none;stroke-width:0.552434;stroke-linecap:round;stroke-linejoin:round;stop-color:#000000"
                 id="path3779"
                 cx="13.203474"
                 cy="31.513931"
                 r="4.2162957" />
              <circle
                 style="opacity:1;fill:#ff6600;fill-opacity:1;stroke:none;stroke-width:0.508372;stroke-linecap:round;stroke-linejoin:round;stop-color:#000000"
                 id="circle4052"
                 cx="14.057473"
                 cy="33.792263"
                 r="3.8800039" />
              <circle
                 style="opacity:1;fill:#ff9900;fill-opacity:1;stroke:none;stroke-width:0.453616;stroke-linecap:round;stroke-linejoin:round;stop-color:#000000"
                 id="circle3781"
                 cx="16.672451"
                 cy="36.340527"
                 r="3.4620957" />
              <circle
                 style="opacity:1;fill:#ffcc00;fill-opacity:1;stroke:none;stroke-width:0.337847;stroke-linecap:round;stroke-linejoin:round;stop-color:#000000"
                 id="circle3783"
                 cx="19.699131"
                 cy="37.667034"
                 r="2.5785191" />
              <text
                 xml:space="preserve"
                 style="font-weight:bold;font-size:5.42845px;font-family:Ubuntu;-inkscape-font-specification:'Ubuntu Bold';text-align:start;text-anchor:start;opacity:1;fill:#ff9900;fill-opacity:1;stroke:none;stroke-width:0.898141;stroke-linecap:round;stroke-linejoin:round;stop-color:#000000"
                 x="20.914045"
                 y="33.804672"
                 id="text3839"><tspan
                   sodipodi:role="line"
                   id="tspan3837"
                   style="text-align:start;text-anchor:start;fill:#ff9900;stroke-width:0.898143"
                   x="20.914045"
                   y="33.804672">Good Company</tspan></text>
            </g>
            <g
               inkscape:label="vCard QR Code: Jane Doe"
               transform="matrix(0.16863755,0,0,0.16863756,43.867188,11.194194)"
               id="g4113">
              <rect
                 x="0"
                 y="0"
                 width="180"
                 height="180"
                 style="fill:#ffffff;stroke:none"
                 id="rect4107" />
              <g
                 style="fill:#000000;stroke:none"
                 id="g4111">
                <path
                   d="m 163.6,164 h -7.2 c -0.22091,0 -0.4,-0.17909 -0.4,-0.4 V 160 h 7.6 c 0.22091,0 0.4,0.17909 0.4,0.4 v 3.2 c 0,0.22091 -0.17909,0.4 -0.4,0.4 z m -12,0 h -7.2 c -0.22091,0 -0.4,-0.17909 -0.4,-0.4 v -3.2 c 0,-0.22091 -0.17909,-0.4 -0.4,-0.4 H 140 v -3.6 c 0,-0.22091 -0.17909,-0.4 -0.4,-0.4 h -3.2 c -0.22091,0 -0.4,-0.17909 -0.4,-0.4 v -7.2 c 0,-0.22091 -0.17909,-0.4 -0.4,-0.4 h -7.2 c -0.22091,0 -0.4,-0.17909 -0.4,-0.4 v -7.2 c 0,-0.22091 -0.17909,-0.4 -0.4,-0.4 h -7.2 c -0.22091,0 -0.4,-0.17909 -0.4,-0.4 v -3.2 c 0,-0.22091 0.17909,-0.4 0.4,-0.4 h 7.2 c 0.22091,0 0.4,-0.17909 0.4,-0.4 v -3.2 c 0,-0.22091 -0.17909,-0.4 -0.4,-0.4 h -7.2 c -0.22091,0 -0.4,-0.17909 -0.4,-0.4 v -7.2 c 0,-0.22091 0.17909,-0.4 0.4,-0.4 h 3.2 c 0.22091,0 0.4,0.17909 0.4,0.4 v 3.2 c 0,0.22091 0.17909,0.4 0.4,0.4 h 15.2 c 0.22091,0 0.4,-0.17909 0.4,-0.4 v -3.2 c 0,-0.22091 -0.17909,-0.4 -0.4,-0.4 h -11.2 c -0.22091,0 -0.4,-0.17909 -0.4,-0.4 v -7.2 c 0,-0.22091 0.17909,-0.4 0.4,-0.4 h 7.2 c 0.22091,0 0.4,-0.17909 0.4,-0.4 v -3.2 c 0,-0.22091 0.17909,-0.4 0.4,-0.4 h 3.2 c 0.22091,0 0.4,0.17909 0.4,0.4 v 3.2 c 0,0.22091 0.17909,0.4 0.4,0.4 h 7.2 c 0.22091,0 0.4,0.17909 0.4,0.4 v 7.2 c 0,0.22091 -0.17909,0.4 -0.4,0.4 h -3.2 c -0.22091,0 -0.4,0.17909 -0.4,0.4 v 3.2 c 0,0.22091 0.17909,0.4 0.4,0.4 h 3.2 c 0.22091,0 0.4,0.17909 0.4,0.4 v 3.2 c 0,0.22091 0.17909,0.4 0.4,0.4 h 7.6 v 4 h -3.6 c -0.22091,0 -0.4,0.17909 -0.4,0.4 v 3.2 c 0,0.22091 -0.17909,0.4 -0.4,0.4 h -3.2 c -0.22091,0 -0.4,0.17909 -0.4,0.4 v 7.2 c 0,0.22091 -0.17909,0.4 -0.4,0.4 h -3.2 c -0.22091,0 -0.4,0.17909 -0.4,0.4 v 3.2 c 0,0.22091 0.17909,0.4 0.4,0.4 h 7.6 v 4 h -3.6 c -0.22091,0 -0.4,0.17909 -0.4,0.4 v 3.2 c 0,0.22091 0.17909,0.4 0.4,0.4 h 3.6 v 3.6 c 0,0.22091 -0.17909,0.4 -0.4,0.4 z m -12,0 h -3.2 c -0.22091,0 -0.4,-0.17909 -0.4,-0.4 v -3.2 c 0,-0.22091 0.17909,-0.4 0.4,-0.4 h 3.6 v 3.6 c 0,0.22091 -0.17909,0.4 -0.4,0.4 z m -12,0 h -7.2 c -0.22091,0 -0.4,-0.17909 -0.4,-0.4 V 160 h 8 v 3.6 c 0,0.22091 -0.17909,0.4 -0.4,0.4 z m -12,0 h -3.2 c -0.22091,0 -0.4,-0.17909 -0.4,-0.4 v -3.2 c 0,-0.22091 -0.17909,-0.4 -0.4,-0.4 H 108 v -3.6 c 0,-0.22091 -0.17909,-0.4 -0.4,-0.4 H 100 v -3.6 c 0,-0.22091 -0.179086,-0.4 -0.4,-0.4 h -7.2 c -0.220914,0 -0.4,0.17909 -0.4,0.4 v 7.2 c 0,0.22091 0.179086,0.4 0.4,0.4 H 96 v 3.6 c 0,0.22091 -0.179086,0.4 -0.4,0.4 H 80.4 c -0.220914,0 -0.4,-0.17909 -0.4,-0.4 v -3.2 C 80,160.17909 79.820914,160 79.6,160 H 76 v -4 h 8 v 3.6 c 0,0.22091 0.179086,0.4 0.4,0.4 h 3.2 c 0.220914,0 0.4,-0.17909 0.4,-0.4 v -3.2 C 88,156.17909 87.820914,156 87.6,156 H 84 v -4 h 3.6 c 0.220914,0 0.4,-0.17909 0.4,-0.4 V 144 h 4 v 3.6 c 0,0.22091 0.179086,0.4 0.4,0.4 h 11.2 c 0.22091,0 0.4,0.17909 0.4,0.4 v 3.2 c 0,0.22091 0.17909,0.4 0.4,0.4 h 7.2 c 0.22091,0 0.4,0.17909 0.4,0.4 v 3.2 c 0,0.22091 0.17909,0.4 0.4,0.4 h 3.2 c 0.22091,0 0.4,-0.17909 0.4,-0.4 V 144 h 3.6 c 0.22091,0 0.4,0.17909 0.4,0.4 v 7.2 c 0,0.22091 0.17909,0.4 0.4,0.4 h 11.2 c 0.22091,0 0.4,0.17909 0.4,0.4 v 7.2 c 0,0.22091 -0.17909,0.4 -0.4,0.4 H 128 v -3.6 c 0,-0.22091 -0.17909,-0.4 -0.4,-0.4 h -7.2 c -0.22091,0 -0.4,0.17909 -0.4,0.4 v 3.6 h -3.6 c -0.22091,0 -0.4,0.17909 -0.4,0.4 v 3.2 c 0,0.22091 -0.17909,0.4 -0.4,0.4 z m -8,0 h -3.2 c -0.22091,0 -0.4,-0.17909 -0.4,-0.4 v -3.2 c 0,-0.22091 0.17909,-0.4 0.4,-0.4 h 3.6 v 3.6 c 0,0.22091 -0.17909,0.4 -0.4,0.4 z m -32,0 H 72.4 C 72.179086,164 72,163.82091 72,163.6 V 160 h 4 v 3.6 c 0,0.22091 -0.179086,0.4 -0.4,0.4 z m -8,0 H 64.4 C 64.179086,164 64,163.82091 64,163.6 V 156 h 3.6 c 0.220914,0 0.4,-0.17909 0.4,-0.4 V 152 h 3.6 c 0.220914,0 0.4,-0.17909 0.4,-0.4 v -3.2 C 72,148.17909 71.820914,148 71.6,148 H 68 v -4 h 11.6 c 0.220914,0 0.4,-0.17909 0.4,-0.4 v -3.2 c 0,-0.22091 -0.179086,-0.4 -0.4,-0.4 h -3.2 c -0.220914,0 -0.4,-0.17909 -0.4,-0.4 v -7.2 c 0,-0.22091 0.179086,-0.4 0.4,-0.4 h 3.2 c 0.220914,0 0.4,0.17909 0.4,0.4 v 3.2 c 0,0.22091 0.179086,0.4 0.4,0.4 H 84 v 3.6 c 0,0.22091 0.179086,0.4 0.4,0.4 h 3.2 c 0.220914,0 0.4,0.17909 0.4,0.4 v 3.6 h -3.6 c -0.220914,0 -0.4,0.17909 -0.4,0.4 v 7.6 h -7.6 c -0.220914,0 -0.4,0.17909 -0.4,0.4 v 3.6 h -3.6 c -0.220914,0 -0.4,0.17909 -0.4,0.4 v 3.6 h -3.6 c -0.220914,0 -0.4,0.17909 -0.4,0.4 v 3.2 c 0,0.22091 -0.179086,0.4 -0.4,0.4 z m -8,0 h -3.2 c -0.220914,0 -0.4,-0.17909 -0.4,-0.4 v -3.2 c 0,-0.22091 -0.179086,-0.4 -0.4,-0.4 h -3.2 c -0.220914,0 -0.4,0.17909 -0.4,0.4 v 3.2 c 0,0.22091 -0.179086,0.4 -0.4,0.4 h -3.2 c -0.220914,0 -0.4,-0.17909 -0.4,-0.4 v -15.2 c 0,-0.22091 0.179086,-0.4 0.4,-0.4 h 3.2 c 0.220914,0 0.4,0.17909 0.4,0.4 v 3.2 c 0,0.22091 0.179086,0.4 0.4,0.4 H 56 v 3.6 c 0,0.22091 0.179086,0.4 0.4,0.4 H 60 v 7.6 c 0,0.22091 -0.179086,0.4 -0.4,0.4 z m -16,0 H 16.4 c -0.220914,0 -0.4,-0.17909 -0.4,-0.4 v -27.2 c 0,-0.22091 0.179086,-0.4 0.4,-0.4 h 27.2 c 0.220914,0 0.4,0.17909 0.4,0.4 v 27.2 c 0,0.22091 -0.179086,0.4 -0.4,0.4 z m 112,-4 H 152 v -4 h 3.6 c 0.22091,0 0.4,0.17909 0.4,0.4 v 3.6 z m -56,0 H 96 v -3.6 c 0,-0.22091 0.179086,-0.4 0.4,-0.4 h 3.6 v 3.6 c 0,0.22091 -0.179086,0.4 -0.4,0.4 z M 40,159.6 V 140.4 C 40,140.17909 39.820914,140 39.6,140 H 20.4 c -0.220914,0 -0.4,0.17909 -0.4,0.4 v 19.2 c 0,0.22091 0.179086,0.4 0.4,0.4 h 19.2 c 0.220914,0 0.4,-0.17909 0.4,-0.4 z M 63.6,156 H 60 v -4 h 4 v 4 z m -28,0 H 24.4 c -0.220914,0 -0.4,-0.17909 -0.4,-0.4 v -11.2 c 0,-0.22091 0.179086,-0.4 0.4,-0.4 h 11.2 c 0.220914,0 0.4,0.17909 0.4,0.4 v 11.2 c 0,0.22091 -0.179086,0.4 -0.4,0.4 z m 120,-4 H 152 v -7.6 c 0,-0.22091 0.17909,-0.4 0.4,-0.4 h 3.6 v 7.6 c 0,0.22091 -0.17909,0.4 -0.4,0.4 z m -88,0 H 64 v -4 h 4 v 4 z m -8,0 H 56 v -3.6 c 0,-0.22091 0.179086,-0.4 0.4,-0.4 H 60 v 4 z m 52,-4 h -3.2 c -0.22091,0 -0.4,-0.17909 -0.4,-0.4 v -3.2 c 0,-0.22091 0.17909,-0.4 0.4,-0.4 h 3.6 v 3.6 c 0,0.22091 -0.17909,0.4 -0.4,0.4 z m -48,0 H 60 v -3.6 c 0,-0.22091 0.179086,-0.4 0.4,-0.4 H 64 v 4 z m 96,-4 H 156 v -8 h 7.6 c 0.22091,0 0.4,0.17909 0.4,0.4 v 3.2 c 0,0.22091 -0.17909,0.4 -0.4,0.4 h -3.2 c -0.22091,0 -0.4,0.17909 -0.4,0.4 v 3.2 c 0,0.22091 -0.17909,0.4 -0.4,0.4 z M 144,143.6 v -11.2 c 0,-0.22091 -0.17909,-0.4 -0.4,-0.4 h -11.2 c -0.22091,0 -0.4,0.17909 -0.4,0.4 v 11.2 c 0,0.22091 0.17909,0.4 0.4,0.4 h 11.2 c 0.22091,0 0.4,-0.17909 0.4,-0.4 z M 115.6,144 H 112 v -8 h 3.6 c 0.22091,0 0.4,0.17909 0.4,0.4 v 7.6 z m -20,0 H 92 v -3.6 c 0,-0.22091 0.179086,-0.4 0.4,-0.4 H 96 v 3.6 c 0,0.22091 -0.179086,0.4 -0.4,0.4 z m -28,0 H 64 v -3.6 c 0,-0.22091 -0.179086,-0.4 -0.4,-0.4 h -7.2 c -0.220914,0 -0.4,0.17909 -0.4,0.4 v 3.2 c 0,0.22091 -0.179086,0.4 -0.4,0.4 h -3.2 c -0.220914,0 -0.4,-0.17909 -0.4,-0.4 v -7.2 c 0,-0.22091 -0.179086,-0.4 -0.4,-0.4 h -3.2 c -0.220914,0 -0.4,-0.17909 -0.4,-0.4 v -3.2 C 48,132.17909 47.820914,132 47.6,132 H 32.4 c -0.220914,0 -0.4,-0.17909 -0.4,-0.4 v -3.2 c 0,-0.22091 0.179086,-0.4 0.4,-0.4 h 11.2 c 0.220914,0 0.4,-0.17909 0.4,-0.4 v -3.2 C 44,124.17909 43.820914,124 43.6,124 H 32.4 C 32.179086,124 32,123.82091 32,123.6 V 120 h 15.6 c 0.220914,0 0.4,0.17909 0.4,0.4 v 3.2 c 0,0.22091 0.179086,0.4 0.4,0.4 h 3.2 c 0.220914,0 0.4,0.17909 0.4,0.4 v 3.2 c 0,0.22091 0.179086,0.4 0.4,0.4 h 3.2 c 0.220914,0 0.4,0.17909 0.4,0.4 v 7.2 c 0,0.22091 0.179086,0.4 0.4,0.4 h 7.2 c 0.220914,0 0.4,-0.17909 0.4,-0.4 V 132 h 7.6 c 0.220914,0 0.4,0.17909 0.4,0.4 v 3.2 c 0,0.22091 -0.179086,0.4 -0.4,0.4 h -3.2 c -0.220914,0 -0.4,0.17909 -0.4,0.4 v 7.6 z m 72,-4 h -3.2 c -0.22091,0 -0.4,-0.17909 -0.4,-0.4 v -3.2 c 0,-0.22091 0.17909,-0.4 0.4,-0.4 h 3.2 c 0.22091,0 0.4,0.17909 0.4,0.4 v 3.2 c 0,0.22091 -0.17909,0.4 -0.4,0.4 z m -40,0 H 96 v -16 h 3.6 c 0.220914,0 0.4,-0.17909 0.4,-0.4 V 120 h 3.6 c 0.22091,0 0.4,0.17909 0.4,0.4 v 3.2 c 0,0.22091 0.17909,0.4 0.4,0.4 h 11.2 c 0.22091,0 0.4,0.17909 0.4,0.4 v 7.2 c 0,0.22091 -0.17909,0.4 -0.4,0.4 H 112 v -3.6 c 0,-0.22091 -0.17909,-0.4 -0.4,-0.4 h -7.2 c -0.22091,0 -0.4,0.17909 -0.4,0.4 v 7.2 c 0,0.22091 -0.17909,0.4 -0.4,0.4 h -3.2 c -0.22091,0 -0.4,0.17909 -0.4,0.4 v 3.2 c 0,0.22091 -0.179086,0.4 -0.4,0.4 z m 12,-4 h -3.2 c -0.22091,0 -0.4,-0.17909 -0.4,-0.4 v -3.2 c 0,-0.22091 0.17909,-0.4 0.4,-0.4 h 3.6 v 4 z m -24,0 H 84 v -7.6 c 0,-0.22091 0.179086,-0.4 0.4,-0.4 h 3.2 c 0.220914,0 0.4,-0.17909 0.4,-0.4 v -7.2 C 88,120.17909 87.820914,120 87.6,120 H 72.4 C 72.179086,120 72,119.82091 72,119.6 V 112 h 4 v 3.6 c 0,0.22091 0.179086,0.4 0.4,0.4 H 100 v 4 h -3.6 c -0.220914,0 -0.4,0.17909 -0.4,0.4 v 3.6 h -3.6 c -0.220914,0 -0.4,0.17909 -0.4,0.4 v 7.2 c 0,0.22091 -0.179086,0.4 -0.4,0.4 h -3.2 c -0.220914,0 -0.4,0.17909 -0.4,0.4 v 3.2 c 0,0.22091 -0.179086,0.4 -0.4,0.4 z m 72,-4 H 156 v -3.6 c 0,-0.22091 0.17909,-0.4 0.4,-0.4 h 3.2 c 0.22091,0 0.4,0.17909 0.4,0.4 v 3.2 c 0,0.22091 -0.17909,0.4 -0.4,0.4 z m -96,0 h -3.2 c -0.220914,0 -0.4,-0.17909 -0.4,-0.4 v -3.2 c 0,-0.22091 0.179086,-0.4 0.4,-0.4 H 64 v 4 z m -36,0 H 24.4 C 24.179086,132 24,131.82091 24,131.6 V 124 h 3.6 c 0.220914,0 0.4,0.17909 0.4,0.4 v 7.2 c 0,0.22091 -0.179086,0.4 -0.4,0.4 z m 52,-4 h -7.2 c -0.220914,0 -0.4,-0.17909 -0.4,-0.4 v -3.2 c 0,-0.22091 0.179086,-0.4 0.4,-0.4 h 7.2 c 0.220914,0 0.4,0.17909 0.4,0.4 v 3.2 c 0,0.22091 -0.179086,0.4 -0.4,0.4 z m -12,0 H 64 v -8 h 3.6 c 0.220914,0 0.4,0.17909 0.4,0.4 v 7.2 c 0,0.22091 -0.179086,0.4 -0.4,0.4 z m -48,0 h -3.2 c -0.220914,0 -0.4,-0.17909 -0.4,-0.4 v -3.2 c 0,-0.22091 0.179086,-0.4 0.4,-0.4 H 20 v 3.6 c 0,0.22091 -0.179086,0.4 -0.4,0.4 z m 140,-4 h -3.2 c -0.22091,0 -0.4,-0.17909 -0.4,-0.4 v -11.2 c 0,-0.22091 -0.17909,-0.4 -0.4,-0.4 h -7.2 c -0.22091,0 -0.4,-0.17909 -0.4,-0.4 v -3.2 c 0,-0.22091 -0.17909,-0.4 -0.4,-0.4 h -7.2 c -0.22091,0 -0.4,-0.17909 -0.4,-0.4 v -7.2 c 0,-0.22091 0.17909,-0.4 0.4,-0.4 h 3.2 c 0.22091,0 0.4,0.17909 0.4,0.4 v 3.2 c 0,0.22091 0.17909,0.4 0.4,0.4 h 3.2 c 0.22091,0 0.4,-0.17909 0.4,-0.4 v -3.2 c 0,-0.22091 0.17909,-0.4 0.4,-0.4 h 3.6 v 7.6 c 0,0.22091 0.17909,0.4 0.4,0.4 h 7.2 c 0.22091,0 0.4,0.17909 0.4,0.4 v 3.2 c 0,0.22091 0.17909,0.4 0.4,0.4 h 3.2 c 0.22091,0 0.4,0.17909 0.4,0.4 v 3.2 c 0,0.22091 -0.17909,0.4 -0.4,0.4 h -3.2 c -0.22091,0 -0.4,0.17909 -0.4,0.4 v 7.2 c 0,0.22091 -0.17909,0.4 -0.4,0.4 z m -136,0 H 20 v -3.6 c 0,-0.22091 0.179086,-0.4 0.4,-0.4 H 24 v 4 z m 96,-4 h -11.2 c -0.22091,0 -0.4,-0.17909 -0.4,-0.4 v -3.2 c 0,-0.22091 -0.17909,-0.4 -0.4,-0.4 H 100 v -3.6 c 0,-0.22091 0.17909,-0.4 0.4,-0.4 h 3.2 c 0.22091,0 0.4,-0.17909 0.4,-0.4 V 108 h 3.6 c 0.22091,0 0.4,-0.17909 0.4,-0.4 v -3.2 c 0,-0.22091 -0.17909,-0.4 -0.4,-0.4 h -3.2 c -0.22091,0 -0.4,0.17909 -0.4,0.4 v 3.6 h -8 v -8 h 15.6 c 0.22091,0 0.4,0.17909 0.4,0.4 v 11.2 c 0,0.22091 0.17909,0.4 0.4,0.4 h 3.2 c 0.22091,0 0.4,-0.17909 0.4,-0.4 v -11.2 c 0,-0.22091 0.17909,-0.4 0.4,-0.4 h 7.6 v 7.6 c 0,0.22091 0.17909,0.4 0.4,0.4 h 3.2 c 0.22091,0 0.4,0.17909 0.4,0.4 v 3.2 c 0,0.22091 -0.17909,0.4 -0.4,0.4 h -7.2 c -0.22091,0 -0.4,0.17909 -0.4,0.4 v 7.2 c 0,0.22091 -0.17909,0.4 -0.4,0.4 z m -56,0 h -3.2 c -0.220914,0 -0.4,-0.17909 -0.4,-0.4 v -3.2 c 0,-0.22091 -0.179086,-0.4 -0.4,-0.4 h -7.2 c -0.220914,0 -0.4,-0.17909 -0.4,-0.4 v -7.2 c 0,-0.22091 0.179086,-0.4 0.4,-0.4 h 15.2 c 0.220914,0 0.4,-0.17909 0.4,-0.4 v -3.2 c 0,-0.22091 0.179086,-0.4 0.4,-0.4 H 72 v 8 h -7.6 c -0.220914,0 -0.4,0.17909 -0.4,0.4 v 7.6 z m -32,0 H 24 v -4 h 7.6 c 0.220914,0 0.4,0.17909 0.4,0.4 v 3.6 z m 16,-4 h -7.2 c -0.220914,0 -0.4,-0.17909 -0.4,-0.4 v -3.2 c 0,-0.22091 0.179086,-0.4 0.4,-0.4 h 7.2 c 0.220914,0 0.4,0.17909 0.4,0.4 v 3.2 c 0,0.22091 -0.179086,0.4 -0.4,0.4 z m -24,0 H 20.4 C 20.179086,116 20,115.82091 20,115.6 V 108 h 3.6 c 0.220914,0 0.4,0.17909 0.4,0.4 v 7.6 z m 72,-4 H 88.4 C 88.179086,112 88,111.82091 88,111.6 V 108 h 8 v 3.6 c 0,0.22091 -0.179086,0.4 -0.4,0.4 z m -16,0 H 76 v -3.6 c 0,-0.22091 0.179086,-0.4 0.4,-0.4 h 3.2 c 0.220914,0 0.4,0.17909 0.4,0.4 v 3.2 c 0,0.22091 -0.179086,0.4 -0.4,0.4 z m -44,0 H 28.4 C 28.179086,112 28,111.82091 28,111.6 V 104 h 7.6 c 0.220914,0 0.4,-0.17909 0.4,-0.4 v -3.2 c 0,-0.22091 -0.179086,-0.4 -0.4,-0.4 h -7.2 c -0.220914,0 -0.4,0.17909 -0.4,0.4 v 3.6 h -7.6 c -0.220914,0 -0.4,0.17909 -0.4,0.4 V 108 H 16.4 C 16.179086,108 16,107.82091 16,107.6 V 96.4 C 16,96.179086 16.179086,96 16.4,96 h 7.2 C 23.820914,96 24,95.820914 24,95.6 V 88.4 C 24,88.179086 23.820914,88 23.6,88 H 16.4 C 16.179086,88 16,87.820914 16,87.6 V 84.4 C 16,84.179086 16.179086,84 16.4,84 h 11.2 c 0.220914,0 0.4,0.179086 0.4,0.4 v 3.2 c 0,0.220914 0.179086,0.4 0.4,0.4 h 7.2 c 0.220914,0 0.4,0.179086 0.4,0.4 v 3.2 c 0,0.220914 0.179086,0.4 0.4,0.4 H 40 v 3.6 c 0,0.220914 0.179086,0.4 0.4,0.4 h 3.2 c 0.220914,0 0.4,0.179086 0.4,0.4 v 3.6 h -3.6 c -0.220914,0 -0.4,0.17909 -0.4,0.4 v 3.2 c 0,0.22091 0.179086,0.4 0.4,0.4 h 3.2 c 0.220914,0 0.4,-0.17909 0.4,-0.4 V 100 h 7.6 c 0.220914,0 0.4,0.17909 0.4,0.4 v 3.2 c 0,0.22091 -0.179086,0.4 -0.4,0.4 h -3.2 c -0.220914,0 -0.4,0.17909 -0.4,0.4 v 3.2 c 0,0.22091 -0.179086,0.4 -0.4,0.4 H 36.4 c -0.220914,0 -0.4,0.17909 -0.4,0.4 v 3.2 c 0,0.22091 -0.179086,0.4 -0.4,0.4 z m 52,-4 h -3.2 c -0.220914,0 -0.4,-0.17909 -0.4,-0.4 v -3.2 C 84,104.17909 83.820914,104 83.6,104 H 80.4 C 80.179086,104 80,103.82091 80,103.6 V 96.4 C 80,96.179086 80.179086,96 80.4,96 H 84 v 3.6 c 0,0.220914 0.179086,0.4 0.4,0.4 h 3.2 c 0.220914,0 0.4,-0.179086 0.4,-0.4 V 96 h 3.6 C 91.820914,96 92,95.820914 92,95.6 V 92.4 C 92,92.179086 92.179086,92 92.4,92 h 3.2 C 95.820914,92 96,91.820914 96,91.6 V 84.4 C 96,84.179086 95.820914,84 95.6,84 H 92.4 C 92.179086,84 92,84.179086 92,84.4 v 3.2 C 92,87.820914 91.820914,88 91.6,88 H 88.4 C 88.179086,88 88,87.820914 88,87.6 V 84.4 C 88,84.179086 87.820914,84 87.6,84 H 84.4 C 84.179086,84 84,83.820914 84,83.6 V 80 h 3.6 C 87.820914,80 88,79.820914 88,79.6 V 76 h 3.6 C 91.820914,76 92,75.820914 92,75.6 V 68.4 C 92,68.179086 91.820914,68 91.6,68 H 88.4 C 88.179086,68 88,67.820914 88,67.6 V 60.4 C 88,60.179086 87.820914,60 87.6,60 H 80.4 C 80.179086,60 80,59.820914 80,59.6 V 52.4 C 80,52.179086 80.179086,52 80.4,52 H 91.6 C 91.820914,52 92,51.820914 92,51.6 V 48 h 3.6 C 95.820914,48 96,47.820914 96,47.6 V 40 h 3.6 c 0.220914,0 0.4,0.179086 0.4,0.4 v 15.2 c 0,0.220914 -0.179086,0.4 -0.4,0.4 H 92.4 C 92.179086,56 92,56.179086 92,56.4 v 3.2 c 0,0.220914 0.179086,0.4 0.4,0.4 h 7.2 c 0.220914,0 0.4,0.179086 0.4,0.4 V 64 H 96.4 C 96.179086,64 96,64.179086 96,64.4 v 7.2 c 0,0.220914 0.179086,0.4 0.4,0.4 h 3.2 c 0.220914,0 0.4,-0.179086 0.4,-0.4 V 64 h 3.6 c 0.22091,0 0.4,0.179086 0.4,0.4 v 7.2 c 0,0.220914 0.17909,0.4 0.4,0.4 h 3.2 c 0.22091,0 0.4,0.179086 0.4,0.4 V 76 h -3.6 c -0.22091,0 -0.4,0.179086 -0.4,0.4 V 80 h -3.6 c -0.22091,0 -0.4,0.179086 -0.4,0.4 v 3.2 c 0,0.220914 0.17909,0.4 0.4,0.4 h 3.2 c 0.22091,0 0.4,-0.179086 0.4,-0.4 V 80 h 4 v 3.6 c 0,0.220914 0.17909,0.4 0.4,0.4 h 7.6 v 4 h -7.6 c -0.22091,0 -0.4,0.179086 -0.4,0.4 v 3.2 c 0,0.220914 0.17909,0.4 0.4,0.4 h 3.2 c 0.22091,0 0.4,0.179086 0.4,0.4 v 3.2 c 0,0.220914 -0.17909,0.4 -0.4,0.4 h -7.2 c -0.22091,0 -0.4,-0.179086 -0.4,-0.4 v -7.2 c 0,-0.220914 -0.17909,-0.4 -0.4,-0.4 h -3.2 c -0.22091,0 -0.4,0.179086 -0.4,0.4 v 7.2 c 0,0.220914 -0.179086,0.4 -0.4,0.4 H 96.4 C 96.179086,96 96,96.179086 96,96.4 v 3.6 h -3.6 c -0.220914,0 -0.4,0.17909 -0.4,0.4 v 3.2 c 0,0.22091 -0.179086,0.4 -0.4,0.4 h -3.2 c -0.220914,0 -0.4,0.17909 -0.4,0.4 v 3.6 z m 76,-4 h -3.2 c -0.22091,0 -0.4,-0.17909 -0.4,-0.4 V 100 h 3.6 c 0.22091,0 0.4,0.17909 0.4,0.4 v 3.2 c 0,0.22091 -0.17909,0.4 -0.4,0.4 z m -28,0 h -3.2 c -0.22091,0 -0.4,-0.17909 -0.4,-0.4 v -3.2 c 0,-0.22091 0.17909,-0.4 0.4,-0.4 h 3.2 c 0.22091,0 0.4,0.17909 0.4,0.4 v 3.2 c 0,0.22091 -0.17909,0.4 -0.4,0.4 z m -60,0 H 72 v -3.6 C 72,100.17909 71.820914,100 71.6,100 H 68.4 C 68.179086,100 68,99.820914 68,99.6 V 96.4 C 68,96.179086 68.179086,96 68.4,96 h 3.2 C 71.820914,96 72,95.820914 72,95.6 V 92 h 4 v 11.6 c 0,0.22091 -0.179086,0.4 -0.4,0.4 z m 84,-4 H 152 v -4 h 8 v 4 z m -32,0 H 124 V 88 h 3.6 c 0.22091,0 0.4,0.179086 0.4,0.4 v 11.2 c 0,0.220914 -0.17909,0.4 -0.4,0.4 z m 36,-4 H 160 V 92.4 C 160,92.179086 159.82091,92 159.6,92 H 152 v -7.6 c 0,-0.220914 0.17909,-0.4 0.4,-0.4 h 3.6 v 3.6 c 0,0.220914 0.17909,0.4 0.4,0.4 h 7.2 c 0.22091,0 0.4,0.179086 0.4,0.4 v 7.2 c 0,0.220914 -0.17909,0.4 -0.4,0.4 z m -12,0 h -7.2 c -0.22091,0 -0.4,-0.179086 -0.4,-0.4 v -7.2 c 0,-0.220914 0.17909,-0.4 0.4,-0.4 h 3.2 c 0.22091,0 0.4,0.179086 0.4,0.4 v 3.2 c 0,0.220914 0.17909,0.4 0.4,0.4 h 3.6 v 4 z m -12,0 h -7.2 c -0.22091,0 -0.4,-0.179086 -0.4,-0.4 v -3.2 c 0,-0.220914 0.17909,-0.4 0.4,-0.4 h 7.2 c 0.22091,0 0.4,0.179086 0.4,0.4 v 3.2 c 0,0.220914 -0.17909,0.4 -0.4,0.4 z m -52,0 H 84 v -4 h 3.6 c 0.220914,0 0.4,0.179086 0.4,0.4 V 96 Z m -24,0 H 60.4 C 60.179086,96 60,95.820914 60,95.6 V 92 h 3.6 c 0.220914,0 0.4,0.179086 0.4,0.4 v 3.2 c 0,0.220914 -0.179086,0.4 -0.4,0.4 z m -12,0 H 48.4 C 48.179086,96 48,95.820914 48,95.6 V 92.4 C 48,92.179086 47.820914,92 47.6,92 H 40 V 88.4 C 40,88.179086 40.179086,88 40.4,88 h 3.2 C 43.820914,88 44,87.820914 44,87.6 V 84 h 8 v 3.6 c 0,0.220914 0.179086,0.4 0.4,0.4 h 7.2 c 0.220914,0 0.4,0.179086 0.4,0.4 V 92 H 52.4 C 52.179086,92 52,92.179086 52,92.4 v 3.2 c 0,0.220914 -0.179086,0.4 -0.4,0.4 z m 68,-4 h -3.2 C 116.17909,92 116,91.820914 116,91.6 V 88 h 4 v 3.6 c 0,0.220914 -0.17909,0.4 -0.4,0.4 z m -36,0 H 76 V 88.4 C 76,88.179086 75.820914,88 75.6,88 H 72 V 84.4 C 72,84.179086 71.820914,84 71.6,84 H 64.4 C 64.179086,84 64,83.820914 64,83.6 V 80 h 11.6 c 0.220914,0 0.4,0.179086 0.4,0.4 v 3.2 c 0,0.220914 0.179086,0.4 0.4,0.4 h 3.2 c 0.220914,0 0.4,0.179086 0.4,0.4 v 3.2 c 0,0.220914 0.179086,0.4 0.4,0.4 h 3.2 c 0.220914,0 0.4,0.179086 0.4,0.4 V 92 Z m -12,0 H 68.4 C 68.179086,92 68,91.820914 68,91.6 V 88.4 C 68,88.179086 68.179086,88 68.4,88 H 72 v 4 z m 68,-4 h -7.2 C 132.17909,88 132,87.820914 132,87.6 V 80 h 3.6 c 0.22091,0 0.4,0.179086 0.4,0.4 v 3.2 c 0,0.220914 0.17909,0.4 0.4,0.4 h 3.6 v 3.6 c 0,0.220914 -0.17909,0.4 -0.4,0.4 z m -16,0 H 120 V 84.4 C 120,84.179086 119.82091,84 119.6,84 H 116 v -3.6 c 0,-0.220914 0.17909,-0.4 0.4,-0.4 h 3.2 c 0.22091,0 0.4,-0.179086 0.4,-0.4 v -3.2 c 0,-0.220914 -0.17909,-0.4 -0.4,-0.4 h -3.2 C 116.17909,76 116,75.820914 116,75.6 V 72 h 3.6 c 0.22091,0 0.4,-0.179086 0.4,-0.4 v -3.2 c 0,-0.220914 -0.17909,-0.4 -0.4,-0.4 h -3.2 c -0.22091,0 -0.4,0.179086 -0.4,0.4 V 72 h -3.6 C 112.17909,72 112,71.820914 112,71.6 V 60.4 c 0,-0.220914 -0.17909,-0.4 -0.4,-0.4 h -7.2 c -0.22091,0 -0.4,-0.179086 -0.4,-0.4 v -3.2 c 0,-0.220914 0.17909,-0.4 0.4,-0.4 h 3.2 c 0.22091,0 0.4,-0.179086 0.4,-0.4 V 52 h 12 v 11.6 c 0,0.220914 0.17909,0.4 0.4,0.4 h 3.6 v 3.6 c 0,0.220914 0.17909,0.4 0.4,0.4 h 7.2 c 0.22091,0 0.4,-0.179086 0.4,-0.4 V 60 h 3.6 c 0.22091,0 0.4,-0.179086 0.4,-0.4 V 52 h 8 v 3.6 c 0,0.220914 0.17909,0.4 0.4,0.4 h 3.6 v 3.6 c 0,0.220914 0.17909,0.4 0.4,0.4 h 3.2 c 0.22091,0 0.4,-0.179086 0.4,-0.4 V 56.4 C 152,56.179086 151.82091,56 151.6,56 H 148 V 52.4 C 148,52.179086 147.82091,52 147.6,52 H 144 v -3.6 c 0,-0.220914 0.17909,-0.4 0.4,-0.4 h 11.2 c 0.22091,0 0.4,0.179086 0.4,0.4 v 3.2 c 0,0.220914 0.17909,0.4 0.4,0.4 h 3.6 v 8 h -3.6 c -0.22091,0 -0.4,0.179086 -0.4,0.4 V 64 h -15.6 c -0.22091,0 -0.4,0.179086 -0.4,0.4 V 68 h -3.6 c -0.22091,0 -0.4,0.179086 -0.4,0.4 v 3.2 c 0,0.220914 0.17909,0.4 0.4,0.4 h 3.6 v 3.6 c 0,0.220914 -0.17909,0.4 -0.4,0.4 h -7.2 c -0.22091,0 -0.4,0.179086 -0.4,0.4 V 80 h -7.6 c -0.22091,0 -0.4,0.179086 -0.4,0.4 V 88 Z m 40,-4 H 156 V 64 h 4 v 11.6 c 0,0.220914 0.17909,0.4 0.4,0.4 h 3.2 c 0.22091,0 0.4,0.179086 0.4,0.4 v 7.2 c 0,0.220914 -0.17909,0.4 -0.4,0.4 z m -16,0 H 140 v -3.6 c 0,-0.220914 0.17909,-0.4 0.4,-0.4 h 7.2 c 0.22091,0 0.4,0.179086 0.4,0.4 v 3.2 c 0,0.220914 -0.17909,0.4 -0.4,0.4 z m -88,0 H 52 V 72.4 C 52,72.179086 52.179086,72 52.4,72 h 3.2 c 0.220914,0 0.4,0.179086 0.4,0.4 v 7.2 c 0,0.220914 0.179086,0.4 0.4,0.4 H 60 v 3.6 c 0,0.220914 -0.179086,0.4 -0.4,0.4 z m -16,0 H 40.4 C 40.179086,84 40,83.820914 40,83.6 V 80 h 4 v 4 z m 68,-4 H 108 v -4 h 3.6 c 0.22091,0 0.4,0.179086 0.4,0.4 v 3.2 c 0,0.220914 -0.17909,0.4 -0.4,0.4 z m -28,0 H 80.4 C 80.179086,80 80,79.820914 80,79.6 V 76.4 C 80,76.179086 80.179086,76 80.4,76 H 84 v 4 z m -20,0 H 60 V 68.4 C 60,68.179086 60.179086,68 60.4,68 h 3.2 C 63.820914,68 64,67.820914 64,67.6 V 64.4 C 64,64.179086 64.179086,64 64.4,64 H 68 v 8 H 64.4 C 64.179086,72 64,72.179086 64,72.4 V 80 Z m -16,0 H 44 v -4 h 3.6 c 0.220914,0 0.4,0.179086 0.4,0.4 v 3.2 c 0,0.220914 -0.179086,0.4 -0.4,0.4 z m -8,0 H 28.4 C 28.179086,80 28,79.820914 28,79.6 V 76.4 C 28,76.179086 28.179086,76 28.4,76 H 40 v 4 z m -20,0 H 16.4 C 16.179086,80 16,79.820914 16,79.6 V 72.4 C 16,72.179086 16.179086,72 16.4,72 h 7.2 c 0.220914,0 0.4,0.179086 0.4,0.4 v 3.2 C 24,75.820914 23.820914,76 23.6,76 H 20.4 C 20.179086,76 20,76.179086 20,76.4 v 3.2 c 0,0.220914 -0.179086,0.4 -0.4,0.4 z m 128,-4 h -3.2 C 144.17909,76 144,75.820914 144,75.6 V 72.4 C 144,72.179086 143.82091,72 143.6,72 H 140 v -4 h 11.6 c 0.22091,0 0.4,0.179086 0.4,0.4 v 3.2 c 0,0.220914 -0.17909,0.4 -0.4,0.4 h -3.2 c -0.22091,0 -0.4,0.179086 -0.4,0.4 v 3.2 c 0,0.220914 -0.17909,0.4 -0.4,0.4 z M 128,75.6 v -3.2 c 0,-0.220914 -0.17909,-0.4 -0.4,-0.4 h -3.2 c -0.22091,0 -0.4,0.179086 -0.4,0.4 v 3.2 c 0,0.220914 0.17909,0.4 0.4,0.4 h 3.2 c 0.22091,0 0.4,-0.179086 0.4,-0.4 z M 87.6,76 H 84 v -4 h 3.6 c 0.220914,0 0.4,0.179086 0.4,0.4 V 76 Z m -12,0 H 68.4 C 68.179086,76 68,75.820914 68,75.6 V 72 h 3.6 C 71.820914,72 72,71.820914 72,71.6 V 64 h 7.6 c 0.220914,0 0.4,0.179086 0.4,0.4 v 3.2 c 0,0.220914 0.179086,0.4 0.4,0.4 h 3.2 c 0.220914,0 0.4,0.179086 0.4,0.4 V 72 H 76.4 C 76.179086,72 76,72.179086 76,72.4 v 3.2 c 0,0.220914 -0.179086,0.4 -0.4,0.4 z m -32,0 H 40 V 72.4 C 40,72.179086 40.179086,72 40.4,72 h 3.2 c 0.220914,0 0.4,0.179086 0.4,0.4 V 76 Z m -12,-4 H 28.4 C 28.179086,72 28,71.820914 28,71.6 V 68 h 4 v 3.6 c 0,0.220914 -0.179086,0.4 -0.4,0.4 z m 20,-4 H 48.4 C 48.179086,68 48,67.820914 48,67.6 V 64 h 3.6 c 0.220914,0 0.4,0.179086 0.4,0.4 v 3.2 c 0,0.220914 -0.179086,0.4 -0.4,0.4 z m -8,0 H 32 v -4 h 12 v 3.6 c 0,0.220914 -0.179086,0.4 -0.4,0.4 z m -16,0 H 16.4 C 16.179086,68 16,67.820914 16,67.6 V 64.4 C 16,64.179086 16.179086,64 16.4,64 h 7.2 C 23.820914,64 24,63.820914 24,63.6 V 60.4 C 24,60.179086 23.820914,60 23.6,60 H 16.4 C 16.179086,60 16,59.820914 16,59.6 V 56.4 C 16,56.179086 16.179086,56 16.4,56 h 11.2 c 0.220914,0 0.4,0.179086 0.4,0.4 v 3.2 c 0,0.220914 0.179086,0.4 0.4,0.4 H 32 v 4 H 28.4 C 28.179086,64 28,64.179086 28,64.4 V 68 Z m 136,-4 H 160 v -4 h 3.6 c 0.22091,0 0.4,0.179086 0.4,0.4 v 3.2 c 0,0.220914 -0.17909,0.4 -0.4,0.4 z m -36,0 H 124 v -3.6 c 0,-0.220914 0.17909,-0.4 0.4,-0.4 h 3.6 v 3.6 c 0,0.220914 -0.17909,0.4 -0.4,0.4 z m -56,0 H 68 V 60.4 C 68,60.179086 67.820914,60 67.6,60 H 60.4 C 60.179086,60 60,60.179086 60,60.4 v 3.2 C 60,63.820914 59.820914,64 59.6,64 H 56.4 C 56.179086,64 56,63.820914 56,63.6 V 36.4 C 56,36.179086 56.179086,36 56.4,36 h 3.2 C 59.820914,36 60,35.820914 60,35.6 V 32 h 3.6 C 63.820914,32 64,31.820914 64,31.6 V 28.4 C 64,28.179086 64.179086,28 64.4,28 H 68 v 8 H 64.4 C 64.179086,36 64,36.179086 64,36.4 V 40 H 60.4 C 60.179086,40 60,40.179086 60,40.4 v 7.2 c 0,0.220914 0.179086,0.4 0.4,0.4 h 3.2 C 63.820914,48 64,47.820914 64,47.6 V 40 h 4 v 7.6 c 0,0.220914 0.179086,0.4 0.4,0.4 H 76 v 3.6 C 76,51.820914 75.820914,52 75.6,52 H 72.4 C 72.179086,52 72,52.179086 72,52.4 V 64 Z m -24,0 H 44 V 60.4 C 44,60.179086 43.820914,60 43.6,60 H 32 v -8 h 8 v 3.6 c 0,0.220914 0.179086,0.4 0.4,0.4 h 7.2 c 0.220914,0 0.4,0.179086 0.4,0.4 V 64 Z m 84,-4 H 128 V 40.4 c 0,-0.220914 0.17909,-0.4 0.4,-0.4 h 3.2 c 0.22091,0 0.4,0.179086 0.4,0.4 v 7.2 c 0,0.220914 0.17909,0.4 0.4,0.4 h 3.2 c 0.22091,0 0.4,0.179086 0.4,0.4 V 52 h -3.6 c -0.22091,0 -0.4,0.179086 -0.4,0.4 V 60 Z M 64,55.6 V 52.4 C 64,52.179086 63.820914,52 63.6,52 H 60.4 C 60.179086,52 60,52.179086 60,52.4 v 3.2 c 0,0.220914 0.179086,0.4 0.4,0.4 h 3.2 C 63.820914,56 64,55.820914 64,55.6 Z M 163.6,52 H 160 v -3.6 c 0,-0.220914 0.17909,-0.4 0.4,-0.4 h 3.2 c 0.22091,0 0.4,0.179086 0.4,0.4 v 3.2 c 0,0.220914 -0.17909,0.4 -0.4,0.4 z m -40,0 H 120 v -3.6 c 0,-0.220914 0.17909,-0.4 0.4,-0.4 h 3.2 c 0.22091,0 0.4,0.179086 0.4,0.4 v 3.2 c 0,0.220914 -0.17909,0.4 -0.4,0.4 z m -16,0 h -3.2 C 104.17909,52 104,51.820914 104,51.6 V 40.4 c 0,-0.220914 0.17909,-0.4 0.4,-0.4 h 3.2 c 0.22091,0 0.4,0.179086 0.4,0.4 v 3.2 c 0,0.220914 0.17909,0.4 0.4,0.4 h 3.6 v 3.6 c 0,0.220914 -0.17909,0.4 -0.4,0.4 h -3.2 c -0.22091,0 -0.4,0.179086 -0.4,0.4 V 52 Z m -56,0 H 48.4 C 48.179086,52 48,51.820914 48,51.6 V 48.4 C 48,48.179086 48.179086,48 48.4,48 h 3.2 c 0.220914,0 0.4,0.179086 0.4,0.4 v 3.2 c 0,0.220914 -0.179086,0.4 -0.4,0.4 z m -8,0 H 40 V 48.4 C 40,48.179086 40.179086,48 40.4,48 h 3.2 c 0.220914,0 0.4,0.179086 0.4,0.4 v 3.2 c 0,0.220914 -0.179086,0.4 -0.4,0.4 z m -12,0 H 16.4 C 16.179086,52 16,51.820914 16,51.6 V 48.4 C 16,48.179086 16.179086,48 16.4,48 h 15.2 c 0.220914,0 0.4,0.179086 0.4,0.4 V 52 Z m 60,-4 H 84.4 C 84.179086,48 84,47.820914 84,47.6 V 44 h 3.6 C 87.820914,44 88,43.820914 88,43.6 V 40.4 C 88,40.179086 88.179086,40 88.4,40 H 92 v 8 z m -12,0 H 76 v -4 h 4 v 3.6 c 0,0.220914 -0.179086,0.4 -0.4,0.4 z m 84,-4 H 136.4 C 136.17909,44 136,43.820914 136,43.6 V 16.4 c 0,-0.220914 0.17909,-0.4 0.4,-0.4 h 27.2 c 0.22091,0 0.4,0.179086 0.4,0.4 v 27.2 c 0,0.220914 -0.17909,0.4 -0.4,0.4 z m -40,0 h -3.2 C 120.17909,44 120,43.820914 120,43.6 V 40 h 3.6 c 0.22091,0 0.4,0.179086 0.4,0.4 v 3.2 c 0,0.220914 -0.17909,0.4 -0.4,0.4 z m -8,0 H 112 v -3.6 c 0,-0.220914 0.17909,-0.4 0.4,-0.4 h 3.6 v 3.6 c 0,0.220914 -0.17909,0.4 -0.4,0.4 z m -32,0 H 80 V 36.4 C 80,36.179086 80.179086,36 80.4,36 h 3.2 c 0.220914,0 0.4,0.179086 0.4,0.4 V 44 Z m -8,0 H 72.4 C 72.179086,44 72,43.820914 72,43.6 V 40.4 C 72,40.179086 71.820914,40 71.6,40 H 68 v -4 h 3.6 C 71.820914,36 72,35.820914 72,35.6 V 28 h 3.6 c 0.220914,0 0.4,0.179086 0.4,0.4 V 44 Z m -24,0 H 48.4 C 48.179086,44 48,43.820914 48,43.6 V 40.4 C 48,40.179086 48.179086,40 48.4,40 h 3.2 c 0.220914,0 0.4,0.179086 0.4,0.4 v 3.2 c 0,0.220914 -0.179086,0.4 -0.4,0.4 z m -8,0 H 16.4 C 16.179086,44 16,43.820914 16,43.6 V 16.4 C 16,16.179086 16.179086,16 16.4,16 h 27.2 c 0.220914,0 0.4,0.179086 0.4,0.4 V 43.6 C 44,43.820914 43.820914,44 43.6,44 Z M 160,39.6 V 20.4 c 0,-0.220914 -0.17909,-0.4 -0.4,-0.4 h -19.2 c -0.22091,0 -0.4,0.179086 -0.4,0.4 v 19.2 c 0,0.220914 0.17909,0.4 0.4,0.4 h 19.2 c 0.22091,0 0.4,-0.179086 0.4,-0.4 z M 119.6,40 H 116 v -4 h 4 v 4 z m -24,0 H 92 V 36.4 C 92,36.179086 91.820914,36 91.6,36 H 88.4 C 88.179086,36 88,35.820914 88,35.6 V 32 h 7.6 c 0.220914,0 0.4,0.179086 0.4,0.4 V 40 Z M 40,39.6 V 20.4 C 40,20.179086 39.820914,20 39.6,20 H 20.4 C 20.179086,20 20,20.179086 20,20.4 v 19.2 c 0,0.220914 0.179086,0.4 0.4,0.4 H 39.6 C 39.820914,40 40,39.820914 40,39.6 Z M 155.6,36 H 144.4 C 144.17909,36 144,35.820914 144,35.6 V 24.4 c 0,-0.220914 0.17909,-0.4 0.4,-0.4 h 11.2 c 0.22091,0 0.4,0.179086 0.4,0.4 v 11.2 c 0,0.220914 -0.17909,0.4 -0.4,0.4 z m -28,0 H 120 v -3.6 c 0,-0.220914 -0.17909,-0.4 -0.4,-0.4 h -3.2 c -0.22091,0 -0.4,0.179086 -0.4,0.4 V 36 h -7.6 C 108.17909,36 108,35.820914 108,35.6 V 32 h 3.6 c 0.22091,0 0.4,-0.179086 0.4,-0.4 V 24 h 3.6 c 0.22091,0 0.4,-0.179086 0.4,-0.4 v -7.2 c 0,-0.220914 0.17909,-0.4 0.4,-0.4 h 3.2 c 0.22091,0 0.4,0.179086 0.4,0.4 v 3.2 c 0,0.220914 0.17909,0.4 0.4,0.4 h 3.6 v 4 h -3.6 c -0.22091,0 -0.4,0.179086 -0.4,0.4 v 3.2 c 0,0.220914 0.17909,0.4 0.4,0.4 h 3.6 v 3.6 c 0,0.220914 0.17909,0.4 0.4,0.4 h 3.6 v 3.6 c 0,0.220914 -0.17909,0.4 -0.4,0.4 z m -76,0 H 48.4 C 48.179086,36 48,35.820914 48,35.6 V 24.4 C 48,24.179086 48.179086,24 48.4,24 h 3.2 C 51.820914,24 52,23.820914 52,23.6 V 20 h 3.6 C 55.820914,20 56,19.820914 56,19.6 V 16.4 C 56,16.179086 56.179086,16 56.4,16 h 3.2 c 0.220914,0 0.4,0.179086 0.4,0.4 v 3.2 c 0,0.220914 0.179086,0.4 0.4,0.4 h 3.2 C 63.820914,20 64,19.820914 64,19.6 V 16.4 C 64,16.179086 64.179086,16 64.4,16 h 7.2 c 0.220914,0 0.4,0.179086 0.4,0.4 v 3.2 c 0,0.220914 0.179086,0.4 0.4,0.4 H 76 v 3.6 C 76,23.820914 75.820914,24 75.6,24 H 72.4 C 72.179086,24 72,24.179086 72,24.4 V 28 H 68 V 24.4 C 68,24.179086 67.820914,24 67.6,24 H 60.4 C 60.179086,24 60,24.179086 60,24.4 V 32 H 52.4 C 52.179086,32 52,32.179086 52,32.4 v 3.2 c 0,0.220914 -0.179086,0.4 -0.4,0.4 z m -16,0 H 24.4 C 24.179086,36 24,35.820914 24,35.6 V 24.4 C 24,24.179086 24.179086,24 24.4,24 h 11.2 c 0.220914,0 0.4,0.179086 0.4,0.4 v 11.2 c 0,0.220914 -0.179086,0.4 -0.4,0.4 z m 96,-4 H 128 V 28.4 C 128,28.179086 127.82091,28 127.6,28 H 124 v -4 h 3.6 c 0.22091,0 0.4,-0.179086 0.4,-0.4 V 20.4 C 128,20.179086 127.82091,20 127.6,20 H 124 v -3.6 c 0,-0.220914 0.17909,-0.4 0.4,-0.4 h 7.2 c 0.22091,0 0.4,0.179086 0.4,0.4 v 15.2 c 0,0.220914 -0.17909,0.4 -0.4,0.4 z m -24,0 h -3.2 c -0.22091,0 -0.4,-0.179086 -0.4,-0.4 v -3.2 c 0,-0.220914 0.17909,-0.4 0.4,-0.4 h 3.2 c 0.22091,0 0.4,0.179086 0.4,0.4 V 32 Z m -20,0 H 84.4 C 84.179086,32 84,31.820914 84,31.6 V 28.4 C 84,28.179086 84.179086,28 84.4,28 h 3.2 c 0.220914,0 0.4,0.179086 0.4,0.4 V 32 Z m 8,-4 H 92.4 C 92.179086,28 92,27.820914 92,27.6 V 24 h 3.6 c 0.220914,0 0.4,0.179086 0.4,0.4 v 3.2 c 0,0.220914 -0.179086,0.4 -0.4,0.4 z m 16,-4 H 100.4 C 100.17909,24 100,23.820914 100,23.6 V 20 h 7.6 c 0.22091,0 0.4,-0.179086 0.4,-0.4 v -3.2 c 0,-0.220914 0.17909,-0.4 0.4,-0.4 h 3.2 c 0.22091,0 0.4,0.179086 0.4,0.4 V 24 Z m -20,0 H 88.4 C 88.179086,24 88,23.820914 88,23.6 V 20.4 C 88,20.179086 87.820914,20 87.6,20 H 84 V 16.4 C 84,16.179086 84.179086,16 84.4,16 h 15.2 c 0.220914,0 0.4,0.179086 0.4,0.4 V 20 H 92.4 C 92.179086,20 92,20.179086 92,20.4 V 24 Z m -8,0 H 80.4 C 80.179086,24 80,23.820914 80,23.6 V 20 h 4 v 3.6 c 0,0.220914 -0.179086,0.4 -0.4,0.4 z m -4,-4 H 76 V 16.4 C 76,16.179086 76.179086,16 76.4,16 h 3.2 c 0.220914,0 0.4,0.179086 0.4,0.4 V 20 Z m -28,0 H 48.4 C 48.179086,20 48,19.820914 48,19.6 V 16.4 C 48,16.179086 48.179086,16 48.4,16 h 3.2 c 0.220914,0 0.4,0.179086 0.4,0.4 V 20 Z"
                   id="path4109" />
              </g>
            </g>
          </g>
        </g>
      </g>
    </g>
    <g
       id="g4112">
      <rect
         style="opacity:1;fill:#ff6600;fill-opacity:1;stroke:none;stroke-width:0.933876;stroke-linecap:round;stroke-linejoin:round;stop-color:#000000"
         id="rect4106"
         width="3.0579302"
         height="15.703032"
         x="97.716309"
         y="7.8021245" />
      <rect
         style="opacity:1;fill:#ffffff;fill-opacity:1;stroke:none;stroke-width:0.933876;stroke-linecap:round;stroke-linejoin:round;stop-color:#000000"
         id="rect4108"
         width="3.0579302"
         height="15.703032"
         x="100.77424"
         y="7.8021245" />
    </g>
    <rect
       style="fill:url(#pattern5448);stroke:none;stroke-width:0.264583"
       width="6.1158605"
       height="15.703032"
       x="112.35576"
       y="7.8021245"
       id="rect4119" />
  </g>
</svg>
